<svg width="25" height="23" viewBox="0 0 25 23" fill="none" xmlns="http://www.w3.org/2000/svg">
<path d="M24.6339 10.3662L14.6338 0.366144C14.459 0.191327 14.2363 0.0722695 13.9939 0.0240288C13.7514 -0.0242119 13.5001 0.000530801 13.2717 0.095128C13.0433 0.189725 12.8481 0.349928 12.7107 0.555476C12.5734 0.761025 12.5001 1.00269 12.5001 1.2499V5.68107C9.08542 5.99713 5.9116 7.57601 3.59968 10.1087C1.28776 12.6415 0.00413565 15.9458 3.66756e-09 19.375V21.25C-1.98767e-05 21.5096 0.0807833 21.7628 0.231192 21.9743C0.3816 22.1859 0.594152 22.3454 0.839338 22.4307C1.08452 22.516 1.35018 22.5228 1.59943 22.4503C1.84868 22.3777 2.06915 22.2293 2.23024 22.0258C3.4548 20.5694 4.95731 19.3717 6.64999 18.5027C8.34267 17.6336 10.1916 17.1105 12.0887 16.9641C12.1509 16.9561 12.3072 16.944 12.5001 16.9317V21.25C12.5001 21.4972 12.5734 21.7389 12.7107 21.9444C12.8481 22.15 13.0433 22.3102 13.2717 22.4048C13.5001 22.4994 13.7514 22.5241 13.9939 22.4759C14.2363 22.4276 14.459 22.3086 14.6338 22.1338L24.6339 12.1337C24.75 12.0177 24.8421 11.8799 24.9049 11.7283C24.9677 11.5766 25.0001 11.4141 25.0001 11.2499C25.0001 11.0858 24.9677 10.9233 24.9049 10.7716C24.8421 10.62 24.75 10.4822 24.6339 10.3662ZM15.0001 18.2324V15.625C15.0001 15.4608 14.9678 15.2982 14.905 15.1466C14.8422 14.9949 14.7501 14.8571 14.6341 14.741C14.518 14.6249 14.3802 14.5328 14.2285 14.47C14.0768 14.4072 13.9142 14.3749 13.7501 14.375C13.4315 14.375 12.1302 14.4366 11.7982 14.4812C8.42888 14.7915 5.22172 16.0716 2.56471 18.1665C2.86613 15.4094 4.17399 12.8603 6.23786 11.0075C8.30173 9.15471 10.9765 8.12833 13.7501 8.12493C13.9142 8.12498 14.0768 8.09267 14.2285 8.02987C14.3802 7.96706 14.518 7.87499 14.6341 7.75891C14.7501 7.64283 14.8422 7.50501 14.905 7.35333C14.9678 7.20166 15.0001 7.03909 15.0001 6.87493V4.26749L21.9825 11.2499L15.0001 18.2324Z" fill="#EAECF0"/>
</svg>
