<svg width="199" height="41" viewBox="0 0 199 41" fill="none" xmlns="http://www.w3.org/2000/svg">
<path d="M17.4738 39.9184L30.3165 31.3585L43.1523 39.9184L30.3165 0L17.4738 39.9184Z" fill="white"/>
<path d="M2.42666e-05 8.20905L17.2027 39.155L11.0584 12.0435L2.42666e-05 8.20905Z" fill="white"/>
<path d="M61.0001 8.20905L43.7974 39.155L49.9418 12.0435L61.0001 8.20905Z" fill="white"/>
<path d="M108.348 9.32386V9.99915C107.898 10.1117 107.414 10.4156 106.896 10.9108C106.378 11.3835 105.939 12.1826 105.579 13.3081L99.3663 33.3643C99.2763 33.3643 99.175 33.3643 99.0625 33.3643C98.9724 33.3643 98.8824 33.3643 98.7923 33.3643C98.6798 33.3643 98.5785 33.3643 98.4885 33.3643C98.3984 33.3643 98.3084 33.3643 98.2183 33.3643L91.0602 12.0588C90.7901 11.2259 90.475 10.6857 90.1148 10.4381C89.7772 10.168 89.4508 10.0217 89.1356 9.99915V9.32386C89.6083 9.34637 90.1936 9.36888 90.8914 9.39138C91.5892 9.41389 92.2645 9.42515 92.9173 9.42515C93.8402 9.42515 94.6956 9.41389 95.4834 9.39138C96.2937 9.36888 96.9353 9.34637 97.408 9.32386V9.99915C96.7327 10.0217 96.1925 10.1004 95.7873 10.2355C95.4046 10.3481 95.1795 10.5957 95.112 10.9783C95.067 11.361 95.1795 11.98 95.4496 12.8354L100.413 28.097L99.839 28.8399L104.093 15.4353C104.544 14.0397 104.746 12.9592 104.701 12.1939C104.679 11.406 104.42 10.8545 103.925 10.5394C103.452 10.2017 102.754 10.0217 101.831 9.99915V9.32386C102.506 9.34637 103.182 9.36888 103.857 9.39138C104.532 9.41389 105.185 9.42515 105.815 9.42515C106.378 9.42515 106.851 9.41389 107.234 9.39138C107.639 9.36888 108.01 9.34637 108.348 9.32386ZM84.5774 9.32386V9.99915C84.0372 10.0442 83.6545 10.1792 83.4294 10.4043C83.2043 10.6069 83.0917 10.9108 83.0917 11.316C83.1143 11.6986 83.2268 12.2051 83.4294 12.8354L88.6629 28.4684L87.785 29.4476L92.377 15.1651L92.8835 16.0093L87.3799 33.3643C87.2898 33.3643 87.1998 33.3643 87.1097 33.3643C87.0197 33.3643 86.9184 33.3643 86.8059 33.3643C86.7158 33.3643 86.6145 33.3643 86.502 33.3643C86.4119 33.3643 86.3219 33.3643 86.2319 33.3643L78.9387 12.1601C78.6461 11.3047 78.2859 10.742 77.8582 10.4719C77.4305 10.1792 77.0366 10.0217 76.6765 9.99915V9.32386C77.2167 9.34637 77.8582 9.36888 78.601 9.39138C79.3439 9.41389 80.0642 9.42515 80.762 9.42515C81.5723 9.42515 82.3039 9.41389 82.9567 9.39138C83.632 9.36888 84.1722 9.34637 84.5774 9.32386Z" fill="white"/>
<path d="M118.506 15.334C119.159 15.334 119.71 15.469 120.161 15.7391C120.633 16.0093 120.982 16.3582 121.207 16.7859C121.455 17.191 121.579 17.6525 121.579 18.1702C121.579 18.823 121.376 19.3857 120.971 19.8584C120.588 20.3086 120.071 20.5337 119.418 20.5337C118.855 20.5337 118.371 20.3649 117.966 20.0273C117.583 19.6896 117.392 19.2282 117.392 18.6429C117.392 18.1477 117.516 17.7313 117.763 17.3936C118.033 17.0335 118.337 16.7521 118.675 16.5495C118.45 16.3694 118.18 16.2906 117.865 16.3131C117.257 16.3357 116.694 16.5382 116.176 16.9209C115.659 17.2811 115.22 17.7538 114.86 18.339C114.499 18.9018 114.218 19.5095 114.015 20.1623C113.813 20.8151 113.712 21.4229 113.712 21.9856V29.7515C113.712 30.8545 114.015 31.5973 114.623 31.98C115.231 32.3401 116.075 32.5202 117.156 32.5202V33.2293C116.638 33.2068 115.895 33.1842 114.927 33.1617C113.982 33.1167 112.98 33.0942 111.922 33.0942C111.112 33.0942 110.301 33.1167 109.491 33.1617C108.681 33.1842 108.062 33.2068 107.634 33.2293V32.5202C108.512 32.5202 109.131 32.3514 109.491 32.0137C109.874 31.6761 110.065 31.0346 110.065 30.0891V19.487C110.065 18.4741 109.896 17.7313 109.559 17.2586C109.221 16.7633 108.579 16.5157 107.634 16.5157V15.8067C108.354 15.8742 109.052 15.908 109.727 15.908C110.493 15.908 111.202 15.8742 111.855 15.8067C112.53 15.7166 113.149 15.5928 113.712 15.4353V19.3182C113.982 18.6654 114.342 18.0351 114.792 17.4274C115.242 16.8196 115.782 16.3244 116.413 15.9417C117.043 15.5366 117.741 15.334 118.506 15.334Z" fill="white"/>
<path d="M126.952 7.29797C127.65 7.29797 128.235 7.52307 128.708 7.97327C129.181 8.40095 129.417 8.94119 129.417 9.59397C129.417 10.2468 129.181 10.7982 128.708 11.2484C128.235 11.6761 127.65 11.89 126.952 11.89C126.255 11.89 125.669 11.6761 125.197 11.2484C124.724 10.7982 124.488 10.2468 124.488 9.59397C124.488 8.94119 124.724 8.40095 125.197 7.97327C125.669 7.52307 126.255 7.29797 126.952 7.29797ZM128.978 15.4353V30.0891C128.978 31.0346 129.158 31.6761 129.518 32.0137C129.901 32.3514 130.531 32.5202 131.409 32.5202V33.2293C131.027 33.2068 130.43 33.1842 129.62 33.1617C128.832 33.1167 128.022 33.0942 127.189 33.0942C126.401 33.0942 125.591 33.1167 124.758 33.1617C123.925 33.1842 123.306 33.2068 122.901 33.2293V32.5202C123.778 32.5202 124.397 32.3514 124.758 32.0137C125.14 31.6761 125.332 31.0346 125.332 30.0891V19.487C125.332 18.4741 125.163 17.7313 124.825 17.2586C124.488 16.7633 123.846 16.5157 122.901 16.5157V15.8067C123.621 15.8742 124.319 15.908 124.994 15.908C125.759 15.908 126.468 15.8742 127.121 15.8067C127.796 15.7166 128.415 15.5928 128.978 15.4353Z" fill="white"/>
<path d="M138.932 10.2355V15.8404H143.592V16.5157H138.932V29.7853C138.932 30.7082 139.101 31.361 139.439 31.7436C139.776 32.1263 140.26 32.3176 140.891 32.3176C141.476 32.3176 141.994 32.0813 142.444 31.6086C142.916 31.1359 143.322 30.3368 143.659 29.2113L144.301 29.4476C144.031 30.6406 143.547 31.6536 142.849 32.4864C142.174 33.2968 141.172 33.702 139.844 33.702C139.079 33.702 138.437 33.6007 137.919 33.3981C137.402 33.218 136.951 32.9479 136.569 32.5877C136.073 32.07 135.736 31.451 135.556 30.7307C135.376 30.0104 135.286 29.0537 135.286 27.8607V16.5157H132.179V15.8404H135.286V10.9108C135.983 10.8883 136.636 10.832 137.244 10.742C137.852 10.6294 138.415 10.4606 138.932 10.2355Z" fill="white"/>
<path d="M148.979 7.29797C149.676 7.29797 150.262 7.52307 150.734 7.97327C151.207 8.40095 151.443 8.94119 151.443 9.59397C151.443 10.2468 151.207 10.7982 150.734 11.2484C150.262 11.6761 149.676 11.89 148.979 11.89C148.281 11.89 147.695 11.6761 147.223 11.2484C146.75 10.7982 146.514 10.2468 146.514 9.59397C146.514 8.94119 146.75 8.40095 147.223 7.97327C147.695 7.52307 148.281 7.29797 148.979 7.29797ZM151.004 15.4353V30.0891C151.004 31.0346 151.185 31.6761 151.545 32.0137C151.927 32.3514 152.558 32.5202 153.435 32.5202V33.2293C153.053 33.2068 152.456 33.1842 151.646 33.1617C150.858 33.1167 150.048 33.0942 149.215 33.0942C148.427 33.0942 147.617 33.1167 146.784 33.1617C145.951 33.1842 145.332 33.2068 144.927 33.2293V32.5202C145.805 32.5202 146.424 32.3514 146.784 32.0137C147.167 31.6761 147.358 31.0346 147.358 30.0891V19.487C147.358 18.4741 147.189 17.7313 146.851 17.2586C146.514 16.7633 145.872 16.5157 144.927 16.5157V15.8067C145.647 15.8742 146.345 15.908 147.02 15.908C147.786 15.908 148.495 15.8742 149.147 15.8067C149.823 15.7166 150.442 15.5928 151.004 15.4353Z" fill="white"/>
<path d="M161.33 15.334C162.23 15.334 163.007 15.4803 163.66 15.7729C164.335 16.043 164.819 16.2906 165.111 16.5157C165.854 17.101 166.316 16.7183 166.496 15.3677H167.239C167.194 15.998 167.16 16.7633 167.137 17.6637C167.115 18.5416 167.104 19.7121 167.104 21.1753H166.361C166.226 20.3424 165.989 19.5321 165.652 18.7442C165.337 17.9564 164.864 17.3036 164.234 16.7859C163.626 16.2681 162.827 16.0093 161.836 16.0093C161.093 16.0093 160.474 16.2231 159.979 16.6508C159.484 17.056 159.236 17.6637 159.236 18.4741C159.236 19.1494 159.439 19.7346 159.844 20.2299C160.249 20.7251 160.767 21.1865 161.397 21.6142C162.05 22.0419 162.748 22.5033 163.491 22.9986C164.324 23.5613 165.066 24.1241 165.719 24.6868C166.395 25.227 166.924 25.8348 167.306 26.5101C167.711 27.1854 167.914 27.9732 167.914 28.8736C167.914 29.9091 167.633 30.787 167.07 31.5073C166.53 32.2276 165.809 32.7791 164.909 33.1617C164.009 33.5219 163.018 33.702 161.938 33.702C161.397 33.702 160.891 33.6457 160.418 33.5331C159.945 33.4431 159.507 33.3193 159.101 33.1617C158.854 33.0267 158.606 32.8916 158.359 32.7566C158.133 32.599 157.908 32.4527 157.683 32.3176C157.458 32.1601 157.256 32.1826 157.075 32.3852C156.895 32.5877 156.76 32.9479 156.67 33.4656H155.927C155.973 32.7453 156.006 31.8674 156.029 30.832C156.051 29.7965 156.063 28.4234 156.063 26.7127H156.805C156.963 27.9507 157.199 29.0424 157.514 29.9879C157.83 30.9333 158.291 31.6761 158.899 32.2163C159.529 32.7341 160.384 32.9929 161.465 32.9929C161.893 32.9929 162.32 32.9029 162.748 32.7228C163.176 32.5202 163.525 32.2051 163.795 31.7774C164.087 31.3497 164.234 30.7757 164.234 30.0554C164.234 29.065 163.885 28.2546 163.187 27.6243C162.512 26.9715 161.634 26.285 160.553 25.5647C159.788 25.0244 159.056 24.4955 158.359 23.9777C157.683 23.4375 157.132 22.841 156.704 22.1882C156.276 21.5129 156.063 20.7138 156.063 19.7909C156.063 18.778 156.299 17.9451 156.772 17.2923C157.267 16.6395 157.92 16.1556 158.73 15.8404C159.54 15.5028 160.407 15.334 161.33 15.334Z" fill="white"/>
<path d="M176.225 10.2355V15.8404H180.885V16.5157H176.225V29.7853C176.225 30.7082 176.394 31.361 176.732 31.7436C177.069 32.1263 177.553 32.3176 178.183 32.3176C178.769 32.3176 179.286 32.0813 179.737 31.6086C180.209 31.1359 180.615 30.3368 180.952 29.2113L181.594 29.4476C181.324 30.6406 180.84 31.6536 180.142 32.4864C179.466 33.2968 178.465 33.702 177.137 33.702C176.371 33.702 175.73 33.6007 175.212 33.3981C174.694 33.218 174.244 32.9479 173.862 32.5877C173.366 32.07 173.029 31.451 172.849 30.7307C172.669 30.0104 172.579 29.0537 172.579 27.8607V16.5157H169.472V15.8404H172.579V10.9108C173.276 10.8883 173.929 10.832 174.537 10.742C175.145 10.6294 175.707 10.4606 176.225 10.2355Z" fill="white"/>
<path d="M186.98 33.4656C186.035 33.4656 185.225 33.2855 184.549 32.9254C183.874 32.5652 183.368 32.07 183.03 31.4397C182.692 30.8095 182.524 30.0892 182.524 29.2788C182.524 28.2884 182.749 27.4893 183.199 26.8815C183.649 26.2512 184.223 25.7448 184.921 25.3621C185.641 24.9794 186.395 24.6643 187.183 24.4167C187.993 24.1466 188.747 23.899 189.445 23.6739C190.166 23.4262 190.751 23.1449 191.201 22.8297C191.674 22.5146 191.91 22.0982 191.91 21.5804V19.2844C191.91 18.4741 191.775 17.8326 191.505 17.3599C191.257 16.8646 190.908 16.5157 190.458 16.3131C190.031 16.1106 189.513 16.0093 188.905 16.0093C188.387 16.0093 187.836 16.0881 187.251 16.2456C186.665 16.3807 186.204 16.6621 185.866 17.0897C186.361 17.2248 186.767 17.4949 187.082 17.9001C187.419 18.2828 187.588 18.7667 187.588 19.352C187.588 19.9822 187.374 20.4775 186.947 20.8376C186.542 21.1978 186.024 21.3779 185.394 21.3779C184.696 21.3779 184.178 21.164 183.84 20.7363C183.503 20.2861 183.334 19.7684 183.334 19.1831C183.334 18.5754 183.48 18.0802 183.773 17.6975C184.088 17.3148 184.493 16.9547 184.988 16.617C185.529 16.2569 186.215 15.953 187.048 15.7054C187.903 15.4578 188.849 15.334 189.884 15.334C190.852 15.334 191.685 15.4465 192.383 15.6716C193.103 15.8742 193.7 16.2119 194.172 16.6846C194.735 17.2023 195.107 17.8551 195.287 18.6429C195.467 19.4082 195.557 20.3424 195.557 21.4454V30.7644C195.557 31.3272 195.624 31.7324 195.759 31.98C195.917 32.2051 196.164 32.3176 196.502 32.3176C196.727 32.3176 196.941 32.2613 197.144 32.1488C197.369 32.0362 197.628 31.8674 197.92 31.6423L198.258 32.2163C197.785 32.599 197.301 32.9029 196.806 33.128C196.333 33.3531 195.726 33.4656 194.983 33.4656C194.262 33.4656 193.677 33.3531 193.227 33.128C192.777 32.9029 192.439 32.5765 192.214 32.1488C192.011 31.7211 191.91 31.1921 191.91 30.5619C191.325 31.5073 190.627 32.2276 189.817 32.7228C189.006 33.218 188.061 33.4656 186.98 33.4656ZM188.601 31.8449C189.231 31.8449 189.817 31.6648 190.357 31.3047C190.92 30.9445 191.437 30.4043 191.91 29.684V22.9648C191.663 23.325 191.302 23.6401 190.83 23.9102C190.357 24.1578 189.85 24.4167 189.31 24.6868C188.77 24.9569 188.252 25.2721 187.757 25.6322C187.284 25.9699 186.89 26.4088 186.575 26.949C186.26 27.4893 186.103 28.1758 186.103 29.0087C186.103 29.8866 186.328 30.5844 186.778 31.1021C187.228 31.5973 187.836 31.8449 188.601 31.8449Z" fill="white"/>
</svg>
