<svg width="115" height="25" viewBox="0 0 115 25" fill="none" xmlns="http://www.w3.org/2000/svg">
<g clip-path="url(#clip0_17_8312)">
<path d="M24.9757 7.35007C24.9171 6.02172 24.7023 5.1085 24.3946 4.31717C24.0771 3.4772 23.5887 2.72518 22.9489 2.10002C22.3237 1.46513 21.5668 0.971793 20.7365 0.659308C19.9406 0.351593 19.0322 0.136784 17.7038 0.0782166C16.3655 0.0146894 15.9407 0 12.5465 0C9.15226 0 8.72741 0.0146894 7.39411 0.0732565C6.06576 0.131824 5.15254 0.346824 4.36141 0.654348C3.52125 0.971793 2.76922 1.46017 2.14406 2.10002C1.50917 2.72518 1.01603 3.48216 0.703353 4.3124C0.395637 5.1085 0.180828 6.01676 0.122261 7.34511C0.0587339 8.68338 0.0440445 9.10822 0.0440445 12.5024C0.0440445 15.8967 0.0587339 16.3215 0.117301 17.6548C0.175868 18.9832 0.390868 19.8964 0.698583 20.6877C1.01603 21.5277 1.50917 22.2797 2.14406 22.9049C2.76922 23.5398 3.52621 24.0331 4.35645 24.3456C5.15254 24.6533 6.0608 24.8681 7.38934 24.9267C8.72245 24.9854 9.14749 24.9999 12.5417 24.9999C15.9359 24.9999 16.3608 24.9854 17.6941 24.9267C19.0224 24.8681 19.9357 24.6533 20.7268 24.3456C22.4069 23.696 23.7353 22.3677 24.3848 20.6877C24.6924 19.8916 24.9074 18.9832 24.9659 17.6548C25.0245 16.3215 25.0392 15.8967 25.0392 12.5024C25.0392 9.10822 25.0342 8.68338 24.9757 7.35007ZM22.7244 17.5571C22.6706 18.7781 22.4655 19.4374 22.2945 19.8769C21.8745 20.966 21.0101 21.8304 19.921 22.2505C19.4814 22.4214 18.8173 22.6265 17.6012 22.6801C16.2826 22.7389 15.8871 22.7534 12.5514 22.7534C9.21579 22.7534 8.81536 22.7389 7.50151 22.6801C6.28057 22.6265 5.62126 22.4214 5.18173 22.2505C4.63974 22.0502 4.14641 21.7328 3.74598 21.3176C3.33086 20.9123 3.01341 20.4239 2.8131 19.8819C2.64217 19.4424 2.43709 18.7781 2.38348 17.5621C2.32472 16.2435 2.31023 15.8478 2.31023 12.5122C2.31023 9.17652 2.32472 8.77609 2.38348 7.46243C2.43709 6.24149 2.64217 5.58218 2.8131 5.14264C3.01341 4.60047 3.33086 4.10732 3.75094 3.7067C4.15614 3.29158 4.64451 2.97414 5.18669 2.77402C5.62622 2.60309 6.29049 2.39801 7.50647 2.34421C8.82509 2.28564 9.22075 2.27095 12.5562 2.27095C15.8968 2.27095 16.2923 2.28564 17.6061 2.34421C18.8271 2.39801 19.4864 2.60309 19.9259 2.77402C20.4679 2.97414 20.9612 3.29158 21.3617 3.7067C21.7768 4.11209 22.0942 4.60047 22.2945 5.14264C22.4655 5.58218 22.6706 6.24626 22.7244 7.46243C22.7829 8.78105 22.7976 9.17652 22.7976 12.5122C22.7976 15.8478 22.7829 16.2385 22.7244 17.5571Z" fill="white"/>
<path d="M12.5464 6.0802C9.00087 6.0802 6.12421 8.95666 6.12421 12.5024C6.12421 16.048 9.00087 18.9245 12.5464 18.9245C16.0921 18.9245 18.9685 16.048 18.9685 12.5024C18.9685 8.95666 16.0921 6.0802 12.5464 6.0802ZM12.5464 16.6682C10.2462 16.6682 8.38048 14.8027 8.38048 12.5024C8.38048 10.202 10.2462 8.33646 12.5464 8.33646C14.8467 8.33646 16.7123 10.202 16.7123 12.5024C16.7123 14.8027 14.8467 16.6682 12.5464 16.6682V16.6682Z" fill="white"/>
<path d="M20.7219 5.82631C20.7219 6.65426 20.0506 7.32559 19.2224 7.32559C18.3945 7.32559 17.7231 6.65426 17.7231 5.82631C17.7231 4.99816 18.3945 4.32703 19.2224 4.32703C20.0506 4.32703 20.7219 4.99816 20.7219 5.82631V5.82631Z" fill="white"/>
</g>
<path fill-rule="evenodd" clip-rule="evenodd" d="M65.7904 4.17509C63.5977 1.97983 60.6816 0.77033 57.5749 0.769043C51.1734 0.769043 45.9635 5.97882 45.9609 12.3821C45.9601 14.429 46.4948 16.4271 47.5112 18.1884L45.8635 24.2065L52.0203 22.5915C53.7167 23.5169 55.6266 24.0046 57.5702 24.0051H57.5751C63.9759 24.0051 69.1864 18.7949 69.1888 12.3914C69.1901 9.28802 67.9832 6.37021 65.7904 4.17509ZM57.5749 22.0437H57.5709C55.8389 22.043 54.1401 21.5775 52.6579 20.6982L52.3055 20.4889L48.652 21.4474L49.6272 17.8853L49.3976 17.52C48.4313 15.9831 47.921 14.2067 47.9219 12.3828C47.9239 7.06057 52.2543 2.73056 57.5788 2.73056C60.1572 2.73142 62.5809 3.73678 64.4034 5.5614C66.2258 7.38602 67.2289 9.8113 67.228 12.3907C67.2258 17.7133 62.8956 22.0437 57.5749 22.0437V22.0437ZM62.8698 14.8141C62.5797 14.6687 61.1529 13.9669 60.8869 13.87C60.6211 13.7731 60.4274 13.7249 60.2341 14.0153C60.0406 14.3057 59.4845 14.9594 59.3152 15.153C59.1458 15.3467 58.9767 15.371 58.6865 15.2256C58.3962 15.0804 57.4612 14.7739 56.3527 13.7853C55.4901 13.0158 54.9078 12.0655 54.7384 11.7751C54.5693 11.4844 54.737 11.3425 54.8657 11.1829C55.1798 10.7928 55.4944 10.3838 55.5911 10.1902C55.688 9.99656 55.6395 9.82704 55.5668 9.68184C55.4944 9.53665 54.9141 8.10828 54.6723 7.52706C54.4366 6.96144 54.1975 7.03783 54.0193 7.02896C53.8502 7.02052 53.6566 7.0188 53.4631 7.0188C53.2697 7.0188 52.9553 7.09133 52.6892 7.38201C52.4232 7.67255 51.6737 8.3745 51.6737 9.80286C51.6737 11.2312 52.7135 12.6111 52.8586 12.8048C53.0036 12.9985 54.9049 15.9296 57.8158 17.1864C58.5082 17.4857 59.0487 17.6641 59.4702 17.7978C60.1655 18.0187 60.7979 17.9875 61.298 17.9129C61.8556 17.8295 63.0148 17.2108 63.2568 16.533C63.4986 15.8551 63.4986 15.2741 63.4259 15.153C63.3535 15.032 63.16 14.9594 62.8698 14.8141V14.8141Z" fill="white"/>
<path d="M93.6113 1.26965C91.8927 1.26965 90.769 2.39818 90.769 3.88148C90.769 5.33202 91.8592 6.49274 93.5454 6.49274H93.578C95.3302 6.49274 96.4207 5.33202 96.4207 3.88148C96.3879 2.39818 95.3302 1.26965 93.6113 1.26965V1.26965Z" fill="white"/>
<path d="M91.0659 8.55652H96.0902V23.6721H91.0659V8.55652Z" fill="white"/>
<path d="M108.422 8.20154C105.712 8.20154 103.894 10.7484 103.894 10.7484V8.55631H98.87V23.672H103.894V15.2308C103.894 14.7789 103.927 14.3277 104.06 14.0046C104.423 13.1022 105.249 12.1674 106.637 12.1674C108.455 12.1674 109.183 13.5535 109.183 15.5856V23.672H114.206V15.0049C114.206 10.362 111.728 8.20154 108.422 8.20154V8.20154Z" fill="white"/>
<defs>
<clipPath id="clip0_17_8312">
<rect width="25" height="25" fill="white"/>
</clipPath>
</defs>
</svg>
